<svg width="197" height="40" xmlns="http://www.w3.org/2000/svg"><g fill="none"><path fill="#E31F25" d="M0 39.928h46.045V0H0z"/><path fill="#FFF" d="M20.464 22.959v-1.997h7.675V16.97h7.674V9.982h-25.58v19.964h25.58V22.96zM124.066 9.982v19.964h8.953v-8.984h3.837v8.984h8.954V16.97h-12.79V9.982h-8.954zm-38.37 3.993h8.952V9.982h-8.953v3.993zm-29.42-3.993v19.964h25.581V22.96H66.51v-1.997h7.674V16.97h7.674V9.982h-25.58zm131.74 19.964h8.954V9.982h-8.953v19.964zM184.18 9.982v19.964h-8.953V9.982h8.953zm-12.79 6.987v6.988H158.6v1.996h12.79v3.993h-21.743V16.97h21.743zm-7.674 2.496H158.6v1.996h5.116v-1.996zm-65.23-2.496v12.977h8.953v-8.984h3.837v8.984h8.953V16.97H98.485zm-12.79 12.977h8.952V16.97h-8.953v12.976z"/></g></svg>